<svg width="37" height="35" viewBox="0 0 37 35" fill="none" xmlns="http://www.w3.org/2000/svg">
<g clip-path="url(#clip0_211_2076)">
<path d="M8.81751 10.5341C7.40398 10.5341 6.04836 11.0956 5.04885 12.0952L1.78686 15.3571C0.787349 16.3566 0.22583 17.7123 0.22583 19.1258C0.22583 22.0693 2.61202 24.4555 5.55554 24.4555C6.96907 24.4555 8.32469 23.894 9.3242 22.8945L11.5805 20.6381C11.5805 20.6381 11.5806 20.6382 11.5805 20.6381L18.1547 14.0639C18.6321 13.5866 19.2795 13.3184 19.9546 13.3184C21.0849 13.3184 22.0431 14.055 22.3753 15.0744L24.4501 12.9996C23.5036 11.5171 21.8439 10.5341 19.9546 10.5341C18.5411 10.5341 17.1855 11.0956 16.186 12.0952L7.35544 20.9257C6.87807 21.4031 6.23064 21.6712 5.55554 21.6712C4.14973 21.6712 3.01011 20.5316 3.01011 19.1258C3.01011 18.4507 3.27828 17.8033 3.75564 17.3259L7.01761 14.0639C7.49498 13.5866 8.14241 13.3184 8.81751 13.3184C9.94779 13.3184 10.9059 14.0551 11.2382 15.0744L13.313 12.9996C12.3665 11.5172 10.7068 10.5341 8.81751 10.5341Z" fill="#394149"/>
<path d="M18.4925 20.9257C18.0152 21.4031 17.3677 21.6712 16.6926 21.6712C15.5626 21.6712 14.6044 20.9348 14.2721 19.9156L12.1974 21.9904C13.1439 23.4726 14.8035 24.4555 16.6926 24.4555C18.1062 24.4555 19.4618 23.894 20.4613 22.8945L29.2918 14.0639C29.7692 13.5866 30.4166 13.3184 31.0917 13.3184C32.4976 13.3184 33.6372 14.458 33.6372 15.8638C33.6372 16.5389 33.369 17.1864 32.8916 17.6637L29.6297 20.9257C29.1523 21.4031 28.5049 21.6712 27.8298 21.6712C26.6996 21.6712 25.7414 20.9346 25.4092 19.9154L23.3344 21.9902C24.2809 23.4726 25.9405 24.4555 27.8298 24.4555C29.2433 24.4555 30.5989 23.894 31.5984 22.8945L34.8604 19.6325C35.8599 18.633 36.4214 17.2774 36.4214 15.8638C36.4214 12.9203 34.0353 10.5341 31.0917 10.5341C29.6782 10.5341 28.3226 11.0956 27.3231 12.0952L18.4925 20.9257Z" fill="#394149"/>
</g>
<defs>
<clipPath id="clip0_211_2076">
<rect width="36.1956" height="13.9214" fill="white" transform="translate(0.22583 10.5341)"/>
</clipPath>
</defs>
</svg>
