<svg width="28" height="21" viewBox="0 0 28 21" fill="none" xmlns="http://www.w3.org/2000/svg">
<g clip-path="url(#clip0_211_2050)">
<path fill-rule="evenodd" clip-rule="evenodd" d="M7.04589 3.61394L0.0950928 10.4948C1.48538 11.8712 3.07357 13.0311 4.80514 13.9386C5.28376 15.1954 6.03398 16.3741 7.05579 17.3856C10.9001 21.1912 17.1329 21.1912 20.9772 17.3856C21.999 16.3741 22.7492 15.1954 23.2278 13.9385C24.9594 13.0311 26.5476 11.8712 27.9379 10.4948L20.9927 3.61953C20.9875 3.61439 20.9824 3.60925 20.9772 3.60411C17.1329 -0.201533 10.9001 -0.201533 7.05579 3.60411C7.0525 3.60739 7.04919 3.61066 7.04589 3.61394ZM20.3121 15.18C18.2865 15.8567 16.1602 16.2033 14.0165 16.2033C11.8728 16.2033 9.74651 15.8567 7.72095 15.18C7.94042 15.4683 8.18272 15.7449 8.44793 16.0074C11.5234 19.052 16.5096 19.052 19.585 16.0074C19.8502 15.7449 20.0926 15.4683 20.3121 15.18ZM8.59069 4.84444C9.11295 5.186 9.66828 5.47829 10.2494 5.71658C11.4437 6.20631 12.7237 6.45837 14.0165 6.45837C15.3092 6.45837 16.5893 6.20631 17.7836 5.71658C18.3647 5.47829 18.92 5.186 19.4423 4.84442C16.4053 1.98368 11.6277 1.98369 8.59069 4.84444Z" fill="#3B4158"/>
</g>
<defs>
<clipPath id="clip0_211_2050">
<rect width="27.8428" height="19.4899" fill="white" transform="translate(0.0950928 0.749878)"/>
</clipPath>
</defs>
</svg>
