<svg width="39" height="35" viewBox="0 0 39 35" fill="none" xmlns="http://www.w3.org/2000/svg">
<g clip-path="url(#clip0_211_2080)">
<path d="M38.8874 14.4806C38.8914 14.4516 38.8914 14.4222 38.8874 14.3932C38.8912 14.3695 38.8912 14.3454 38.8874 14.3217L38.6038 12.2804C38.5629 12.0362 38.4535 11.8079 38.2878 11.6211L38.2392 11.5655L38.1501 11.4782L33.2403 7.33197L33.3781 7.46701C33.2654 7.33484 33.1239 7.22912 32.9641 7.15764C32.8043 7.08616 32.6301 7.05074 32.4545 7.05398H30.9637C30.7213 7.04927 30.4844 7.12483 30.2912 7.26844C30.0884 7.1257 29.8441 7.05052 29.5944 7.05398H28.1037C27.9081 7.05087 27.7153 7.09844 27.5446 7.19189C27.3738 7.28534 27.2313 7.42135 27.1315 7.58615C26.9775 7.82153 26.9196 8.10512 26.9694 8.38044L27.1558 9.66719C27.0323 9.59858 26.8926 9.56298 26.7506 9.56394H19.5318C19.2728 9.56553 19.0198 9.63996 18.8026 9.77839C18.5926 9.90724 18.4241 10.0917 18.3165 10.3106L17.7575 9.84193C17.5374 9.64235 17.247 9.53417 16.9473 9.54011H5.62073C5.36081 9.54475 5.10666 9.61594 4.88347 9.74662C4.57813 9.92183 4.35435 10.2067 4.2596 10.5409L0.662334 22.3361C0.59512 22.5305 0.588508 22.7401 0.643345 22.9381C0.698182 23.1362 0.811983 23.3138 0.970212 23.4481C1.01144 23.4824 1.05473 23.5142 1.09985 23.5434C1.09985 23.5434 1.02692 23.4958 0.986407 23.4561L5.89622 27.6102C6.10391 27.7977 6.37546 27.9024 6.65775 27.9041H18.0735C18.3342 27.8974 18.5885 27.8235 18.8107 27.6896C18.9364 27.6223 19.0489 27.5335 19.1429 27.4275L19.1834 27.3719L19.2482 27.2925L19.2968 27.2051L19.8316 27.6579C20.0363 27.8379 20.3019 27.9369 20.577 27.9359H32.0169C32.2773 27.9273 32.5312 27.8535 32.7542 27.7214C32.8771 27.6499 32.9889 27.5616 33.0864 27.4593L33.1269 27.4037L33.1917 27.3243C33.2261 27.274 33.256 27.2209 33.2808 27.1654C33.3073 27.1172 33.329 27.0667 33.3456 27.0145L36.6269 16.2439V16.1486C36.631 16.1116 36.631 16.0744 36.6269 16.0374V15.9659C36.6308 15.9422 36.6308 15.9181 36.6269 15.8944C36.6306 15.8442 36.6306 15.7938 36.6269 15.7435H37.6802C37.7718 15.7517 37.864 15.7517 37.9556 15.7435H38.0286C38.0879 15.7262 38.145 15.7021 38.1987 15.672H38.2798L38.4256 15.5608L38.4904 15.5132L38.6038 15.3702V15.3226L38.6848 15.1875C38.6803 15.1612 38.6803 15.1344 38.6848 15.1081C38.6805 15.0952 38.6805 15.0813 38.6848 15.0684C38.7021 15.0218 38.7156 14.974 38.7253 14.9254C38.7216 14.9097 38.7216 14.8934 38.7253 14.8777C38.7214 14.8541 38.7214 14.8299 38.7253 14.8062C38.7253 14.8062 38.8874 14.4965 38.8874 14.4806Z" fill="black"/>
<path d="M17.2795 10.4456C17.3225 10.4838 17.3525 10.5339 17.3656 10.5893C17.3786 10.6447 17.374 10.7027 17.3524 10.7554L13.7633 22.5427C13.7181 22.6713 13.6256 22.7789 13.504 22.8445C13.405 22.9094 13.2905 22.9477 13.1718 22.9557H1.76424C1.66682 22.9511 1.57452 22.9115 1.50497 22.8445C1.4636 22.807 1.43456 22.7582 1.42157 22.7045C1.40858 22.6507 1.41224 22.5944 1.43206 22.5427L5.02933 10.7554C5.07077 10.6251 5.16033 10.5146 5.28048 10.4456C5.38107 10.3854 5.49506 10.35 5.61267 10.3424H17.0202C17.1169 10.3433 17.2095 10.3802 17.2795 10.4456ZM11.3245 20.1677L13.4716 13.1303H7.45993L5.32099 20.1677H11.3245ZM28.1685 10.5648C28.2074 10.6091 28.2561 10.6443 28.3108 10.6677C28.3655 10.691 28.4248 10.702 28.4845 10.6998H29.9671C30.0236 10.7003 30.0792 10.6868 30.1289 10.6604C30.1785 10.634 30.2204 10.5956 30.2507 10.5489C30.277 10.5124 30.2956 10.4711 30.3054 10.4274C30.3151 10.3838 30.3158 10.3386 30.3074 10.2947L30.0157 8.19779C29.988 8.10074 29.9381 8.01112 29.87 7.93567C29.831 7.89133 29.7824 7.85616 29.7277 7.83279C29.6729 7.80941 29.6136 7.79842 29.5539 7.80064H28.0713C28.0148 7.8001 27.9592 7.81368 27.9096 7.84008C27.8599 7.86649 27.818 7.90485 27.7877 7.95156C27.731 8.06276 27.7067 8.13424 27.731 8.19779L28.0308 10.2947C28.0462 10.3968 28.0944 10.4914 28.1685 10.5648ZM32.8758 8.1819C32.848 8.08485 32.7981 7.99523 32.7299 7.91979C32.6926 7.8756 32.6454 7.84045 32.592 7.81703C32.5387 7.79362 32.4805 7.78257 32.422 7.78476H30.9313C30.8758 7.78321 30.8208 7.79641 30.7723 7.82298C30.7238 7.84955 30.6836 7.88849 30.6558 7.93567C30.6019 8.00614 30.5786 8.09465 30.591 8.1819L30.8907 10.2788C30.9096 10.3799 30.9573 10.4735 31.0285 10.5489C31.0681 10.5924 31.1169 10.6269 31.1714 10.6502C31.226 10.6735 31.285 10.685 31.3445 10.6839H32.8352C32.8906 10.6846 32.9452 10.6711 32.9935 10.6446C33.0419 10.6181 33.0823 10.5796 33.1107 10.533C33.1389 10.4975 33.1586 10.4562 33.1684 10.4122C33.1783 10.3682 33.1779 10.3227 33.1674 10.2788L32.8758 8.1819ZM26.8641 11.3591L26.7182 10.3265H19.5318C19.419 10.3326 19.3098 10.3682 19.2158 10.4297C19.1562 10.4616 19.1042 10.5059 19.0637 10.5593C19.0231 10.6128 18.9949 10.6743 18.9809 10.7395L18.3813 12.7093C18.3574 12.7586 18.3492 12.8138 18.3579 12.8677C18.3666 12.9216 18.3917 12.9716 18.4299 13.0112C18.4983 13.0741 18.5874 13.1108 18.6811 13.1144H27.4151L25.268 20.1519H16.5584C16.4461 20.1544 16.3367 20.1874 16.2425 20.2471C16.1279 20.3185 16.0442 20.4288 16.0075 20.5569L15.3998 22.5268C15.38 22.5773 15.3748 22.6322 15.3848 22.6855C15.3948 22.7388 15.4196 22.7883 15.4565 22.8286C15.5227 22.8958 15.6126 22.9356 15.7077 22.9398H27.1477C27.266 22.9298 27.38 22.8916 27.4798 22.8286C27.5995 22.7627 27.6892 22.6549 27.731 22.5268L31.0204 11.7562H27.3178C27.259 11.7573 27.2007 11.7466 27.1464 11.7248C27.092 11.7029 27.0428 11.6704 27.0019 11.6291C26.9349 11.5571 26.8875 11.4697 26.8641 11.3749V11.3591Z" fill="white"/>
</g>
<defs>
<clipPath id="clip0_211_2080">
<rect width="38.2838" height="20.8821" fill="white" transform="translate(0.606567 7.05377)"/>
</clipPath>
</defs>
</svg>
