<svg width="39" height="21" viewBox="0 0 39 21" fill="none" xmlns="http://www.w3.org/2000/svg">
<g clip-path="url(#clip0_211_2053)">
<path d="M38.5802 7.48059C38.5842 7.45156 38.5842 7.42222 38.5802 7.3932C38.584 7.36955 38.584 7.34543 38.5802 7.32173L38.2966 5.2804C38.2557 5.03618 38.1463 4.80792 37.9807 4.62114L37.932 4.56554L37.8429 4.47816L32.9331 0.331974L33.0709 0.467013C32.9582 0.334841 32.8167 0.229121 32.6569 0.157641C32.4971 0.0861603 32.3229 0.0507354 32.1473 0.0539794H30.6565C30.4141 0.0492708 30.1772 0.124831 29.984 0.268441C29.7812 0.125696 29.5369 0.0505223 29.2872 0.0539794H27.7965C27.601 0.0508696 27.4081 0.0984412 27.2374 0.191892C27.0666 0.285342 26.9241 0.421354 26.8243 0.58615C26.6703 0.821528 26.6124 1.10512 26.6622 1.38044L26.8486 2.66719C26.7251 2.59858 26.5854 2.56298 26.4435 2.56394H19.2246C18.9656 2.56553 18.7126 2.63996 18.4954 2.77839C18.2854 2.90724 18.1169 3.09174 18.0093 3.31056L17.4503 2.84193C17.2302 2.64235 16.9398 2.53417 16.6401 2.54011H5.31354C5.05362 2.54475 4.79947 2.61594 4.57628 2.74662C4.27094 2.92183 4.04716 3.20672 3.95241 3.54091L0.355144 15.3361C0.28793 15.5305 0.281318 15.7401 0.336155 15.9381C0.390992 16.1362 0.504794 16.3138 0.663022 16.4481C0.704252 16.4824 0.747543 16.5142 0.792657 16.5434C0.792657 16.5434 0.719727 16.4958 0.679217 16.4561L5.58903 20.6102C5.79672 20.7977 6.06827 20.9024 6.35056 20.9041H17.7663C18.027 20.8974 18.2813 20.8235 18.5035 20.6896C18.6292 20.6223 18.7417 20.5335 18.8357 20.4275L18.8762 20.3719L18.941 20.2925L18.9896 20.2051L19.5244 20.6579C19.7291 20.8379 19.9948 20.9369 20.2698 20.9359H31.7097C31.9701 20.9273 32.224 20.8535 32.447 20.7214C32.5699 20.6499 32.6817 20.5616 32.7792 20.4593L32.8197 20.4037L32.8845 20.3243C32.9189 20.274 32.9488 20.2209 32.9736 20.1654C33.0001 20.1172 33.0218 20.0667 33.0384 20.0145L36.3197 9.24393V9.1486C36.3238 9.11164 36.3238 9.07436 36.3197 9.0374V8.96593C36.3237 8.94223 36.3237 8.91811 36.3197 8.89441C36.3234 8.84419 36.3234 8.79376 36.3197 8.74349H37.373C37.4646 8.75173 37.5568 8.75173 37.6484 8.74349H37.7214C37.7807 8.72615 37.8378 8.70214 37.8915 8.67202H37.9726L38.1184 8.56082L38.1832 8.51316L38.2966 8.37017V8.32256L38.3776 8.1875C38.3731 8.16124 38.3731 8.13436 38.3776 8.1081C38.3733 8.0952 38.3733 8.08126 38.3776 8.06837C38.3949 8.0218 38.4084 7.97398 38.4182 7.92538C38.4144 7.90972 38.4144 7.89338 38.4182 7.87772C38.4142 7.85407 38.4142 7.8299 38.4182 7.80625C38.4182 7.80625 38.5802 7.49646 38.5802 7.48059Z" fill="black"/>
<path d="M16.9723 3.44563C17.0153 3.48376 17.0453 3.5339 17.0584 3.58929C17.0714 3.64468 17.0668 3.70265 17.0452 3.7554L13.4561 15.5427C13.4109 15.6713 13.3184 15.7789 13.1968 15.8445C13.0978 15.9094 12.9833 15.9477 12.8646 15.9557H1.45705C1.35963 15.9511 1.26733 15.9115 1.19778 15.8445C1.15641 15.807 1.12737 15.7582 1.11438 15.7045C1.10139 15.6507 1.10505 15.5944 1.12487 15.5427L4.72214 3.7554C4.76358 3.62509 4.85314 3.51462 4.97329 3.44563C5.07388 3.3854 5.18787 3.34996 5.30548 3.34237H16.713C16.8097 3.34328 16.9024 3.3802 16.9723 3.44563ZM11.0173 13.1677L13.1644 6.13032H7.15274L5.0138 13.1677H11.0173ZM27.8613 3.56477C27.9002 3.60911 27.9489 3.64428 28.0036 3.66765C28.0583 3.69103 28.1177 3.70202 28.1773 3.6998H29.66C29.7164 3.70034 29.772 3.68677 29.8217 3.66036C29.8713 3.63396 29.9132 3.59558 29.9435 3.54888C29.9698 3.5124 29.9885 3.4711 29.9982 3.42744C30.0079 3.38378 30.0086 3.33865 30.0002 3.29472L29.7086 1.19779C29.6808 1.10074 29.6309 1.01112 29.5628 0.935671C29.5238 0.891328 29.4752 0.856163 29.4205 0.832785C29.3658 0.809408 29.3064 0.798424 29.2468 0.800643H27.7641C27.7076 0.800105 27.652 0.813678 27.6024 0.840084C27.5528 0.866489 27.5108 0.904855 27.4805 0.951563C27.4238 1.06276 27.3995 1.13424 27.4238 1.19779L27.7236 3.29472C27.739 3.39682 27.7872 3.49143 27.8613 3.56477ZM32.5686 1.1819C32.5408 1.08485 32.4909 0.995232 32.4227 0.919785C32.3854 0.875604 32.3382 0.840449 32.2848 0.81703C32.2315 0.793616 32.1733 0.782569 32.1149 0.784757H30.6241C30.5686 0.783206 30.5136 0.796414 30.4651 0.822981C30.4166 0.849548 30.3764 0.888494 30.3486 0.935671C30.2947 1.00614 30.2714 1.09465 30.2838 1.1819L30.5836 3.27882C30.6024 3.37985 30.6501 3.47353 30.7213 3.54888C30.7609 3.59236 30.8097 3.62693 30.8643 3.65024C30.9188 3.67354 30.9778 3.68503 31.0373 3.6839H32.5281C32.5835 3.68463 32.638 3.67107 32.6863 3.64458C32.7347 3.61809 32.7751 3.57962 32.8035 3.533C32.8317 3.49746 32.8514 3.45618 32.8612 3.4122C32.8711 3.36823 32.8707 3.32266 32.8602 3.27882L32.5686 1.1819ZM26.5569 4.35906L26.411 3.32648H19.2246C19.1118 3.33258 19.0026 3.36824 18.9086 3.42974C18.849 3.46164 18.797 3.50586 18.7565 3.55934C18.7159 3.61282 18.6877 3.67429 18.6737 3.73951L18.0742 5.70934C18.0502 5.75857 18.042 5.8138 18.0507 5.86768C18.0594 5.92155 18.0845 5.97156 18.1228 6.01119C18.1911 6.07415 18.2803 6.11085 18.3739 6.11445H27.1079L24.9608 13.1519H16.2512C16.1389 13.1544 16.0295 13.1874 15.9353 13.2471C15.8207 13.3185 15.737 13.4288 15.7003 13.5569L15.0926 15.5268C15.0728 15.5773 15.0676 15.6322 15.0776 15.6855C15.0876 15.7388 15.1124 15.7883 15.1493 15.8286C15.2155 15.8958 15.3054 15.9356 15.4005 15.9398H26.8405C26.9588 15.9298 27.0728 15.8916 27.1726 15.8286C27.2923 15.7627 27.382 15.6549 27.4238 15.5268L30.7132 4.75621H27.0106C26.9519 4.75734 26.8935 4.74665 26.8392 4.72479C26.7848 4.70293 26.7357 4.67036 26.6947 4.62911C26.6277 4.55708 26.5803 4.46967 26.5569 4.37495V4.35906Z" fill="white"/>
</g>
<defs>
<clipPath id="clip0_211_2053">
<rect width="38.2838" height="20.8821" fill="white" transform="translate(0.299377 0.053772)"/>
</clipPath>
</defs>
</svg>
