<svg width="33" height="21" viewBox="0 0 33 21" fill="none" xmlns="http://www.w3.org/2000/svg">
<g clip-path="url(#clip0_211_2057)">
<path d="M30.7852 3.23114C30.7852 3.25467 30.7852 3.28409 30.779 3.30175C30.7484 3.53123 30.7484 3.76071 30.7667 3.99608C30.779 4.05492 30.7913 4.11377 30.8403 4.16084C30.92 4.2491 31.0426 4.23145 31.0917 4.12553C31.1162 4.07258 31.1162 4.01962 31.1039 3.96666C31.0426 3.74306 31.0304 3.5077 31.0243 3.27821C31.0243 3.26644 31.0243 3.24879 31.0243 3.23114C31.0917 3.22525 31.153 3.21937 31.2082 3.21937C31.2511 3.21348 31.2879 3.2076 31.3186 3.18994C31.4105 3.14287 31.4105 3.04284 31.3124 2.99577C31.2756 2.97812 31.2266 2.97223 31.1837 2.97223C31.0304 2.97812 30.8771 2.97811 30.7238 2.97811C30.6687 2.97811 30.6135 2.984 30.5583 2.98988C30.5276 2.99577 30.4909 2.99577 30.4664 3.01342C30.4234 3.03107 30.3989 3.06049 30.3989 3.10168C30.405 3.14287 30.4234 3.16641 30.4664 3.18406C30.4909 3.20172 30.5215 3.2076 30.5522 3.2076C30.6257 3.21348 30.7055 3.22525 30.7852 3.23114ZM32.4711 3.50181C32.4711 3.5077 32.4772 3.51358 32.4772 3.51358C32.5018 3.67245 32.5263 3.82544 32.5447 3.97843C32.5508 4.03138 32.557 4.07846 32.5937 4.11965C32.6734 4.21968 32.7961 4.20791 32.8512 4.102C32.8758 4.04904 32.8819 3.99608 32.8696 3.93724C32.8328 3.76071 32.8144 3.58419 32.7777 3.41355C32.7531 3.30763 32.7225 3.2076 32.6918 3.11345C32.6734 3.05461 32.6305 3.01342 32.557 3.00754C32.4834 2.99577 32.4282 3.03107 32.3975 3.08403C32.3608 3.1311 32.3301 3.17818 32.3056 3.23114C32.2627 3.32528 32.2259 3.41943 32.1769 3.5077C32.1707 3.53123 32.1646 3.54888 32.1523 3.56653C32.1462 3.55477 32.1401 3.54888 32.1401 3.54888C32.0603 3.40178 31.9868 3.25467 31.9071 3.11345C31.8948 3.10168 31.8887 3.08991 31.8826 3.07815C31.8458 3.02519 31.8029 2.99577 31.7354 2.99577C31.6741 3.00165 31.625 3.03696 31.5944 3.08991C31.5821 3.11345 31.5821 3.1311 31.576 3.15464C31.5515 3.34294 31.5208 3.53123 31.4963 3.71952C31.484 3.82544 31.4779 3.93135 31.4779 4.03727C31.4718 4.06081 31.4779 4.09023 31.4902 4.11377C31.5025 4.16084 31.5392 4.19026 31.5883 4.19614C31.6496 4.20203 31.6925 4.18438 31.7109 4.1373C31.7293 4.102 31.7354 4.07258 31.7416 4.04316C31.7661 3.93724 31.7845 3.83721 31.8029 3.73718C31.8151 3.67834 31.8212 3.63126 31.8397 3.56653C31.8519 3.59007 31.8641 3.60773 31.8764 3.62537C31.9316 3.69599 31.9868 3.7666 32.0542 3.82544C32.1217 3.87251 32.1769 3.86663 32.232 3.81367C32.2443 3.8019 32.2504 3.79602 32.2627 3.78425C32.3179 3.70187 32.3853 3.61949 32.4405 3.53711C32.4527 3.52534 32.4589 3.51358 32.4711 3.50181Z" fill="#3A3B7B"/>
<path d="M18.3449 3.34674C18.3023 3.45857 18.2941 3.53913 18.3138 3.60609C18.3355 3.69715 18.392 3.72696 18.4685 3.7038C19.1886 3.5329 20.7677 4.018 21.3523 4.15321C21.4902 4.1816 21.6024 4.01077 21.5083 3.85762C21.371 3.7093 19.7926 3.07428 19.1903 3.03965C18.9543 3.02685 18.5323 2.96875 18.3449 3.34674Z" fill="#3A3B7B"/>
<path d="M24.5161 1.29111C24.5929 1.33362 24.6358 1.37418 24.657 1.41949C24.6885 1.47893 24.6719 1.52005 24.6189 1.54104C24.1429 1.76401 23.5094 2.72395 23.2538 3.05503C23.1918 3.13119 23.0488 3.08693 23.0272 2.96168C23.0317 2.82007 23.5931 1.77832 23.9065 1.49458C24.0297 1.3838 24.2331 1.16644 24.5161 1.29111Z" fill="#3A3B7B"/>
<path d="M20.7254 0.8186C20.8176 0.751905 20.9134 0.728533 20.9623 0.771877C21.6805 1.36138 22.0614 2.2949 22.2972 3.14952C22.3061 3.16943 22.3067 3.19801 22.2996 3.22781C22.2966 3.25329 22.2772 3.2802 22.2464 3.30102C22.2135 3.32401 22.1852 3.33101 22.1719 3.3112C21.8571 2.90029 20.0593 1.30152 20.7254 0.8186Z" fill="#3A3B7B"/>
<path d="M5.51689 11.039C5.68901 10.916 5.87615 10.8136 6.07417 10.7342C6.28135 10.6773 6.50218 10.6867 6.70328 10.7611C6.90434 10.8354 7.07479 10.9705 7.18873 11.146C7.29066 11.3211 7.33053 11.5232 7.30239 11.722C7.27426 11.9207 7.17962 12.1052 7.03268 12.2479C6.91878 12.3635 6.78946 12.4642 6.64818 12.5474C6.01846 12.9379 5.38313 13.3069 4.74783 13.6974C4.61783 13.7951 4.47993 13.8827 4.33543 13.9594C4.11565 14.0646 3.86447 14.0928 3.62533 14.0391C3.38619 13.9854 3.17413 13.8532 3.02581 13.6653C2.91494 13.5322 2.82137 13.3868 2.74717 13.232C2.1453 12.0179 1.52115 10.8091 0.941566 9.57349C0.674068 9.03865 0.456728 8.42353 0.244959 7.82983C0.153339 7.65733 0.135447 7.45735 0.195095 7.27237C0.254742 7.0874 0.387223 6.93206 0.564355 6.83938C0.741489 6.74671 0.949297 6.72405 1.14359 6.77616C1.33788 6.82828 1.50332 6.95109 1.60473 7.11846C1.91644 7.51603 2.19236 7.93833 2.42952 8.38077C3.03138 9.45049 3.60539 10.5202 4.18497 11.5579C4.21872 11.6152 4.25593 11.6705 4.29642 11.7237C4.73265 11.5476 5.14295 11.3175 5.51689 11.039Z" fill="#3A3B7B"/>
<path d="M11.7398 10.6659C10.3634 12.2116 8.05619 11.8212 6.89704 9.83148C6.07224 8.41943 5.92736 6.08739 7.72184 4.6165C8.10503 4.30856 8.56323 4.09879 9.05372 4.00675C9.65512 3.924 10.2684 4.02583 10.8059 4.29769C11.3433 4.56955 11.7775 4.99752 12.0464 5.52044C13.0272 7.23203 12.8879 9.41428 11.7398 10.6659ZM11.1826 7.06086C11.0363 6.64026 10.743 6.28118 10.3522 6.04459C10.1311 5.89333 9.8624 5.81979 9.59142 5.83635C9.3204 5.85291 9.06363 5.95857 8.86426 6.13552C8.06736 6.81482 7.90014 8.42479 8.47971 9.38221C8.5536 9.53833 8.66208 9.67706 8.79766 9.78873C8.93324 9.90039 9.09261 9.98228 9.2646 10.0286C9.43659 10.075 9.61703 10.0847 9.79337 10.0572C9.9697 10.0295 10.1376 9.96531 10.2854 9.86892C10.7173 9.54746 11.0343 9.10483 11.192 8.60257C11.3499 8.10026 11.3407 7.56326 11.1659 7.06623L11.1826 7.06086Z" fill="#3A3B7B"/>
<path d="M17.3572 7.73479C17.2163 7.76387 17.0707 7.76562 16.9291 7.73988C16.7875 7.71414 16.6526 7.66152 16.5325 7.58504C16.4274 7.52733 16.3369 7.44801 16.2675 7.35272C16.1982 7.25743 16.1518 7.14861 16.1315 7.03401C16.1113 6.91946 16.1177 6.80201 16.1504 6.69012C16.1831 6.57822 16.2413 6.47468 16.3207 6.38691C16.4591 6.21056 16.6554 6.08431 16.878 6.02856C17.4591 5.86671 18.0573 5.76803 18.6613 5.7344C18.794 5.71958 18.9285 5.73036 19.0568 5.7661C19.1851 5.80188 19.3047 5.86185 19.4085 5.94259C19.5123 6.02329 19.5983 6.12312 19.6614 6.23616C19.7245 6.3492 19.7634 6.47321 19.7759 6.60088C19.95 7.22803 19.9691 7.88559 19.8316 8.52108C19.3301 10.575 17.6025 11.281 15.6631 10.6231C15.1187 10.4472 14.6414 10.1194 14.2922 9.68173C13.8264 9.1546 13.4962 8.52989 13.3281 7.85783C13.1919 7.25936 13.2068 6.63837 13.3716 6.04659C13.5364 5.45482 13.8463 4.90946 14.2755 4.45605C14.6827 3.96325 15.2113 3.57542 15.8136 3.32747C16.1942 3.12614 16.6395 3.0689 17.0619 3.16701C17.1577 3.19247 17.2447 3.24206 17.3138 3.31065C17.3829 3.37925 17.4317 3.46433 17.455 3.5571C17.4783 3.64987 17.4753 3.74693 17.4464 3.83823C17.4174 3.92952 17.3636 4.01172 17.2904 4.07629C17.1512 4.1972 17 4.30469 16.839 4.39721C16.3435 4.70004 15.9124 5.09025 15.5684 5.54717C15.3429 5.84285 15.1876 6.18239 15.1134 6.54184C15.0393 6.90129 15.0481 7.27198 15.1393 7.62785C15.2657 8.11305 15.5461 8.54856 15.9417 8.87406C17.1678 9.94383 18.7616 8.91149 18.483 7.45131C18.0762 7.54761 17.7195 7.64923 17.3572 7.73479Z" fill="#3A3B7B"/>
<path d="M24.8473 10.7514C23.0361 11.8212 20.9742 10.7514 20.5227 8.50499C20.194 6.90039 20.8181 4.65392 23.0027 3.79813C23.4675 3.61997 23.9716 3.55741 24.4683 3.61627C25.0651 3.72112 25.6126 4.0031 26.0335 4.42245C26.4544 4.8418 26.7276 5.37735 26.8145 5.95366C27.1823 7.86312 26.3464 9.90099 24.8473 10.7514ZM25.4771 7.15175C25.4765 6.70743 25.3127 6.27746 25.0145 5.9376C24.8551 5.72739 24.6246 5.57678 24.3624 5.5114C24.1002 5.44607 23.8225 5.47002 23.5767 5.57926C22.5959 5.98573 21.9048 7.46197 22.1556 8.54779C22.1748 8.71818 22.2324 8.88251 22.3247 9.02928C22.4169 9.17604 22.5414 9.3017 22.6895 9.39749C22.8375 9.49323 23.0056 9.55682 23.182 9.58375C23.3584 9.61063 23.5387 9.60026 23.7104 9.55333C24.2289 9.3795 24.6778 9.05465 24.9945 8.62409C25.3112 8.19353 25.4799 7.67879 25.4771 7.15175Z" fill="#3A3B7B"/>
<path d="M28.646 11.2008C28.6187 11.3965 28.5115 11.5738 28.3479 11.6937C28.1843 11.8135 27.9779 11.8662 27.7739 11.8399C27.5699 11.8137 27.3852 11.7107 27.2603 11.5537C27.1354 11.3968 27.0806 11.1986 27.108 11.0028C27.1353 10.8071 27.2426 10.6298 27.4061 10.5099C27.5697 10.39 27.7761 10.3374 27.9801 10.3637C28.1841 10.3899 28.3688 10.4928 28.4937 10.6498C28.6186 10.8068 28.6734 11.005 28.646 11.2008ZM28.1612 3.98535C28.2672 3.82999 28.4227 3.71167 28.6045 3.64805C28.7863 3.58444 28.9846 3.57892 29.1699 3.63234C29.3583 3.67758 29.5247 3.78356 29.6414 3.93253C29.7581 4.08152 29.8179 4.26444 29.8108 4.45069C29.7862 4.74943 29.7397 5.04613 29.6715 5.33856C29.4876 6.32809 29.3092 7.31757 29.1142 8.29641C29.025 8.68687 28.908 9.06127 28.7798 9.45706C28.7352 9.58079 28.6607 9.69259 28.5625 9.78334C28.5014 9.8516 28.4234 9.90395 28.3356 9.93556C28.2479 9.96721 28.1532 9.97708 28.0604 9.96428C27.9677 9.95148 27.8797 9.91643 27.8048 9.86238C27.7299 9.80829 27.6704 9.73696 27.6318 9.65497C27.5656 9.50789 27.5296 9.34984 27.5259 9.18964C27.5259 8.52639 27.5259 7.85782 27.5705 7.1892C27.6463 6.23505 27.7953 5.28754 28.0163 4.35441C28.0424 4.22939 28.0914 4.10984 28.1612 4.0014V3.98535Z" fill="#3A3B7B"/>
<path fill-rule="evenodd" clip-rule="evenodd" d="M3.16231 15.4989C3.09651 15.6399 3.07847 15.797 3.11062 15.9483C3.13201 16.1477 3.179 16.3438 3.2505 16.5322C3.33978 16.7629 3.43968 16.991 3.56285 17.2721C3.59118 17.3368 3.62078 17.4043 3.65176 17.4754C3.81787 17.8563 4.02629 18.343 4.3043 19.0475C4.38299 19.2476 4.45287 19.4493 4.52323 19.6525C4.55166 19.7346 4.58019 19.8169 4.60939 19.8994C4.71406 20.1929 4.89416 20.4565 5.13289 20.6654C5.23426 20.7802 5.36872 20.8639 5.51949 20.9058C5.6732 20.9484 5.83669 20.9457 5.98877 20.898C6.14084 20.8502 6.27442 20.7597 6.37214 20.6381C6.46795 20.5188 6.52492 20.3751 6.536 20.225C6.59816 19.9326 6.57694 19.6294 6.47449 19.3475C6.3119 18.8794 6.12668 18.4106 5.9131 17.9521L5.91212 17.9501C5.56076 17.2328 5.2036 16.5204 4.82954 15.8077L4.82674 15.8027C4.71724 15.6171 4.57493 15.4511 4.40622 15.3123C4.29668 15.1883 4.1456 15.1048 3.97875 15.0759C3.80835 15.0465 3.6326 15.0762 3.48289 15.1596C3.34126 15.2373 3.22899 15.356 3.16231 15.4989Z" fill="#3A3B7B"/>
<path fill-rule="evenodd" clip-rule="evenodd" d="M8.52889 13.7325C7.97797 13.5955 7.4026 13.5756 6.84289 13.674C6.40936 13.715 5.98299 13.811 5.68692 14.0011C5.53633 14.0979 5.41459 14.2221 5.34686 14.38C5.27877 14.5388 5.27008 14.7204 5.32588 14.9227C5.42776 15.2933 5.56007 15.6536 5.69192 16.0128L5.71328 16.071L5.71379 16.0722C6.11077 17.1157 6.51153 18.1556 6.91594 19.1919C6.96309 19.3552 7.02978 19.5128 7.11466 19.6614L7.11625 19.6641C7.22837 19.8487 7.37217 20.0138 7.54159 20.1525C7.62632 20.2288 7.73111 20.2815 7.84472 20.3051C7.95946 20.3289 8.07878 20.322 8.18968 20.2851C8.30063 20.2483 8.39887 20.1829 8.47374 20.0961C8.5474 20.0107 8.59563 19.9079 8.61334 19.7984C8.68644 19.501 8.66302 19.1893 8.54618 18.905C8.50973 18.8094 8.48113 18.7116 8.45098 18.6087C8.44093 18.5744 8.43075 18.5395 8.42 18.5039C9.3457 18.1566 10.3307 17.6896 10.677 16.6033C10.8127 16.2279 10.824 15.8213 10.7094 15.4395C10.5947 15.0572 10.3594 14.7183 10.0359 14.4696C9.59555 14.1213 9.08122 13.8698 8.52889 13.7325ZM7.00179 15.065C7.02002 15.06 7.03838 15.0553 7.0568 15.0509C7.65946 14.96 8.27605 15.0811 8.79304 15.392C9.02088 15.5441 9.11421 15.7131 9.13025 15.8757C9.14679 16.0431 9.08337 16.2245 8.95597 16.3988C8.71523 16.7282 8.27591 16.9919 7.87907 17.041C7.58978 16.4016 7.29599 15.7363 7.00179 15.065Z" fill="#3A3B7B"/>
<path d="M12.2018 12.562C12.8579 12.2712 13.6706 12.221 14.3065 12.4254C14.4667 12.4702 14.6057 12.5671 14.6996 12.6994C14.793 12.8309 14.8361 12.9894 14.8217 13.1479C14.8208 13.2508 14.7945 13.352 14.745 13.4433C14.6946 13.5362 14.6216 13.6161 14.5323 13.6763C14.4429 13.7365 14.3398 13.7751 14.2316 13.789C14.1233 13.8028 14.0133 13.7914 13.9106 13.7558L13.9028 13.7531L13.8955 13.7494C13.8429 13.723 13.7871 13.7031 13.7294 13.6902L13.7258 13.6894C13.2784 13.5753 12.8564 13.7643 12.7023 13.9965C12.6288 14.1072 12.6196 14.219 12.6809 14.3206C12.7464 14.4295 12.9073 14.5517 13.2327 14.6387C13.3222 14.6623 13.4139 14.6851 13.507 14.7082C13.7643 14.7721 14.0317 14.8386 14.2903 14.9307L14.2913 14.931C15.4843 15.3667 15.9285 16.2689 15.7764 17.1176C15.626 17.9568 14.8957 18.7206 13.7976 18.9007C13.398 18.9857 12.9821 18.9692 12.5912 18.8527C12.1993 18.7359 11.846 18.5227 11.5665 18.2342L11.5592 18.2267C11.4709 18.118 11.4116 17.9903 11.3853 17.8548C11.361 17.7326 11.3738 17.6062 11.4219 17.4907C11.4698 17.3758 11.5507 17.2764 11.6552 17.2039C11.7655 17.1218 11.8986 17.0725 12.0378 17.0623C12.1765 17.052 12.3154 17.081 12.4372 17.1455C12.5589 17.2019 12.6721 17.2739 12.7737 17.3595L12.7757 17.3611C12.9554 17.5188 13.1729 17.5599 13.3814 17.5218C13.593 17.4832 13.7919 17.3631 13.9199 17.2036C14.047 17.0452 14.0981 16.857 14.0375 16.6744C13.9765 16.4903 13.7933 16.2842 13.3907 16.1118C13.2854 16.0689 13.1763 16.0343 13.0628 16.0006C13.0321 15.9916 13.001 15.9825 12.9695 15.9734C12.8856 15.9489 12.7992 15.9237 12.7145 15.896C12.6562 15.8769 12.5983 15.8588 12.541 15.8409C12.3844 15.7919 12.2317 15.7442 12.0848 15.6802C11.765 15.5757 11.4887 15.375 11.297 15.1079C11.1046 14.8397 11.0077 14.519 11.0209 14.1936C11.0219 13.4007 11.5422 12.8544 12.2018 12.562Z" fill="#3A3B7B"/>
<path d="M20.5196 12.4775C20.3923 12.4179 20.2517 12.3896 20.1102 12.3952C19.9688 12.4008 19.831 12.44 19.7093 12.5095C19.5884 12.5785 19.4872 12.6751 19.4147 12.7908C19.3482 12.8882 19.3021 12.9971 19.2792 13.1115C19.2562 13.2258 19.2568 13.3432 19.2808 13.4572C19.3045 13.6037 19.3307 13.7462 19.3567 13.8868C19.3996 14.1193 19.4414 14.3466 19.469 14.5784L19.47 14.5843C19.5328 14.9478 19.5656 15.3154 19.5686 15.6838L19.5689 15.689C19.5903 16.0869 19.4491 16.4769 19.1754 16.7765L19.1711 16.7819C19.082 16.8914 18.963 16.9749 18.8272 17.0233C18.6915 17.0716 18.5445 17.0827 18.4026 17.0553C18.2606 17.028 18.1294 16.9633 18.0236 16.8685C17.9178 16.7736 17.8415 16.6521 17.8034 16.5181C17.7221 16.2356 17.675 15.945 17.663 15.6523L17.8019 13.5298C17.804 13.5021 17.8063 13.4737 17.8087 13.445C17.814 13.3805 17.8194 13.3149 17.8217 13.2536C17.8249 13.1635 17.8221 13.0708 17.8003 12.9831C17.7779 12.8935 17.7353 12.8082 17.6598 12.7356C17.585 12.6637 17.484 12.6106 17.357 12.5745C17.1273 12.5107 16.9331 12.5127 16.7712 12.5787C16.6093 12.6446 16.4983 12.767 16.4198 12.9084C16.3419 13.0486 16.2919 13.2146 16.254 13.3808C16.2259 13.5042 16.2033 13.6337 16.1819 13.757C16.1745 13.7995 16.1672 13.8412 16.1599 13.8817L16.1597 13.8829C16.0449 14.5589 16.0107 15.2453 16.0578 15.9288C16.0666 16.2982 16.1469 16.6628 16.2946 17.0039C16.4612 17.4442 16.763 17.8256 17.1601 18.0979C17.558 18.3707 18.0329 18.5211 18.5219 18.529C19.0108 18.5369 19.4908 18.4021 19.8981 18.1424C20.3048 17.883 20.62 17.5113 20.802 17.0765C21.0566 16.5225 21.1761 15.92 21.1514 15.315C21.1365 14.8733 21.1114 14.4282 21.0865 13.9854C21.0743 13.7681 21.0621 13.5514 21.0511 13.3359C21.0456 13.1199 20.9714 12.9106 20.8384 12.7363C20.7561 12.626 20.6465 12.5371 20.5196 12.4775Z" fill="#3A3B7B"/>
<path d="M25.0222 15.8056C25.0093 15.8213 24.9957 15.8376 24.9815 15.8545C24.8781 15.2816 24.7822 14.7089 24.6861 14.1353C24.6517 13.9295 24.617 13.7228 24.5822 13.5167L24.5783 13.4937L24.5656 13.4739C24.5416 13.4365 24.5392 13.3998 24.5392 13.3216V13.3126L24.5378 13.3037C24.5118 13.1422 24.4357 12.992 24.3195 12.8726C24.2036 12.7535 24.053 12.6707 23.8874 12.6347C23.7221 12.5956 23.5484 12.6042 23.3882 12.6595C23.2283 12.7147 23.089 12.8139 22.9876 12.9447C22.9033 13.045 22.8342 13.1563 22.7824 13.2752C22.6648 13.5314 22.5463 13.7882 22.4274 14.0457L22.4253 14.0502C22.1285 14.693 21.8297 15.3402 21.5395 15.9925L21.5386 15.9946C21.3605 16.4176 21.2135 16.8632 21.067 17.3075C21.0377 17.3962 21.0085 17.4848 20.979 17.5732C20.9261 17.7134 20.9029 17.8623 20.9109 18.0112C20.9012 18.1445 20.9345 18.2774 21.0062 18.3921C21.0793 18.5091 21.1888 18.6011 21.3192 18.6553C21.4574 18.7135 21.612 18.7258 21.7584 18.6904C21.9045 18.655 22.0343 18.5741 22.1272 18.4603C22.2459 18.3202 22.3481 18.1673 22.4313 18.0053C22.6771 17.5228 22.912 17.0344 23.1458 16.5481C23.2363 16.36 23.3242 16.1915 23.4242 16.0081C23.4311 16.0307 23.4381 16.0528 23.4454 16.0749C23.5502 16.5178 23.7271 16.9421 23.9697 17.3321C24.0155 17.4148 24.0795 17.487 24.1571 17.5438C24.2356 17.6013 24.3262 17.6417 24.4226 17.6622C24.519 17.6827 24.619 17.6828 24.7154 17.6625C24.8117 17.6422 24.9026 17.6018 24.9812 17.5446L25.1367 17.4328L26.3436 16.4572L26.2722 16.8937C26.1742 17.4937 26.077 18.0888 25.9737 18.6839C25.9062 18.9477 25.9063 19.2233 25.974 19.487C26.0034 19.6354 26.0782 19.772 26.1888 19.8794C26.3004 19.9877 26.4433 20.0613 26.5991 20.0907C26.7548 20.12 26.9161 20.1038 27.0621 20.044C27.2059 19.9851 27.3283 19.8867 27.4138 19.7612C27.6128 19.5243 27.7367 19.2374 27.7707 18.9347C27.8219 18.5073 27.8798 18.0741 27.9377 17.641C28.0044 17.1418 28.0711 16.6428 28.1274 16.1533L28.1276 16.1518C28.1818 15.616 28.208 15.078 28.2062 14.5397C28.2181 14.3696 28.1739 14.2001 28.0799 14.0553C27.9855 13.9099 27.8458 13.7969 27.6806 13.7323C27.5088 13.6573 27.3165 13.6373 27.132 13.6752C26.9486 13.7128 26.7827 13.8056 26.6581 13.9399C26.4355 14.1375 26.2267 14.349 26.033 14.5729L26.0317 14.5744C25.8202 14.8273 25.6102 15.0852 25.4015 15.3414C25.2746 15.4972 25.1481 15.6526 25.0222 15.8056Z" fill="#3A3B7B"/>
</g>
<defs>
<clipPath id="clip0_211_2057">
<rect width="32.7153" height="20.186" fill="white" transform="translate(0.160461 0.749878)"/>
</clipPath>
</defs>
</svg>
